<svg xmlns="http://www.w3.org/2000/svg" width="196" height="44" viewBox="0 0 196 44" fill="none" role="img" aria-labelledby="title desc">
  <title id="title">MVPReady</title>
  <desc id="desc">MVPReady logo for dark backgrounds</desc>
  <rect x="0.5" y="0.5" width="43" height="43" rx="10.5" fill="#ffffff"/>
  <path d="M9.5 31.5v-19h5.2L22 23.25 29.3 12.5h5.2v19h-5.1V20.8L22 31.5l-7.4-10.7v10.7H9.5z" fill="#050505"/>
  <path d="M35.5 6.5l1.05 3.15 3.25 1.1-3.25 1.1L35.5 15l-1.05-3.15-3.25-1.1 3.25-1.1L35.5 6.5z" fill="#5B7CFA"/>
  <path d="M58.5 30V14h4.54l5.7 9.58L74.4 14h4.5v16h-3.36V19.38l-5.3 8.8h-3.08l-5.3-8.8V30H58.5zm24.95 0V14h7.09c1.2 0 2.26.23 3.17.7.91.45 1.62 1.1 2.12 1.94.52.82.78 1.8.78 2.92 0 1.1-.26 2.08-.78 2.92-.5.82-1.21 1.46-2.12 1.92-.91.45-1.97.68-3.17.68h-3.46V30h-3.63zm3.63-7.9h3.22c.83 0 1.47-.22 1.92-.66.47-.45.7-1.08.7-1.88 0-.8-.23-1.42-.7-1.86-.45-.45-1.09-.68-1.92-.68h-3.22v5.08zM102.3 30 96.04 14h3.9l4.34 11.88L108.62 14h3.8l-6.26 16h-3.86zm12.31 0V14h7.55c1.85 0 3.31.48 4.38 1.44 1.08.94 1.62 2.23 1.62 3.88 0 1.08-.27 2.03-.8 2.84-.52.8-1.25 1.42-2.2 1.86L128.82 30h-4.08l-3.12-5.42h-3.38V30h-3.63zm3.63-8.34h3.58c.83 0 1.48-.2 1.94-.6.48-.42.72-1 .72-1.74 0-.75-.24-1.32-.72-1.72-.46-.4-1.11-.6-1.94-.6h-3.58v4.66zM131.31 30V14h11.8v3.08h-8.17v3.38h7.35v2.94h-7.35v3.52h8.27V30h-11.9zm14.85 0 6.54-16h3.67l6.54 16h-3.86l-1.29-3.42h-6.58L149.89 30h-3.73zm6.12-6.34h4.4l-2.2-5.82-2.2 5.82zM165.27 30V14h6.1c1.7 0 3.21.34 4.52 1.02a7.45 7.45 0 0 1 3.07 2.84c.74 1.22 1.11 2.6 1.11 4.14s-.37 2.93-1.11 4.16a7.52 7.52 0 0 1-3.07 2.82c-1.31.68-2.82 1.02-4.52 1.02h-6.1zm3.63-3.14h2.31c1.03 0 1.93-.19 2.7-.58.77-.4 1.37-.96 1.8-1.7.43-.75.64-1.61.64-2.58 0-.98-.21-1.84-.64-2.56a4.2 4.2 0 0 0-1.8-1.7c-.77-.4-1.67-.6-2.7-.6h-2.31v9.72zm17.4 3.14v-6.02L180.3 14h4.08l3.74 6.64L191.87 14h3.93l-5.88 9.98V30h-3.62z" fill="#ffffff"/>
</svg>
